<svg width="128" height="44" viewBox="0 0 128 44" fill="none" xmlns="http://www.w3.org/2000/svg">
<mask id="mask0_24458_188677" style="mask-type:luminance" maskUnits="userSpaceOnUse" x="93" y="0" width="22" height="12">
<path d="M96.5958 0.378624H96.6113H96.5803H96.5958ZM101.897 0.00980801C100.11 -0.00375133 98.325 0.121516 96.5571 0.384509H96.5262H96.5668C94.5562 0.776865 94.1251 1.90881 94.1251 1.90881C93.6031 2.97406 94.6007 5.8775 96.6093 9.31454C99.1449 8.95745 101.704 8.79742 104.263 8.83586C107.936 8.92022 110.063 9.3832 111.001 9.95996C111.938 10.5367 111.654 11.6412 111.54 11.9433C112.226 10.7094 113.684 7.79023 114.115 6.02463C114.546 4.25903 114.177 3.48412 114.098 3.29187C113.834 2.62433 113.351 2.06984 112.731 1.72244C110.734 0.712126 107.511 0.321732 105.406 0.153019C104.315 0.0523139 103.19 0.00130785 102.03 0L101.897 0.00980801Z" fill="white"/>
</mask>
<g mask="url(#mask0_24458_188677)">
<path d="M114.558 -0.0511067L93.5742 0.00463867L93.6051 11.993L114.589 11.9373L114.558 -0.0511067Z" fill="url(#paint0_linear_24458_188677)"/>
</g>
<mask id="mask1_24458_188677" style="mask-type:luminance" maskUnits="userSpaceOnUse" x="86" y="0" width="30" height="29">
<path d="M96.5786 0.382751C96.5591 0.384904 96.5397 0.38818 96.5206 0.392561C90.8658 1.17727 88.4008 2.94288 87.4342 3.91396C87.0812 4.28323 86.8041 4.72001 86.6189 5.19891C86.4337 5.67781 86.3441 6.18929 86.3554 6.70361C86.4289 8.92239 87.759 12.0004 88.366 13.2481C89.406 15.325 90.601 17.3181 91.9407 19.21C93.2738 21.0597 94.7685 22.7839 96.4065 24.3616C97.7598 25.623 99.6196 27.2297 101.149 28.0321C101.772 28.3339 102.453 28.492 103.144 28.4951C104.149 28.4557 105.108 28.056 105.851 27.3671C107.285 26.0507 108.689 23.5337 109.667 21.8623C111.163 19.2982 112.399 16.2771 113.007 14.6429C113.468 13.4227 114.747 9.65021 115.111 6.89783C115.255 5.86676 115.121 4.81545 114.724 3.85511C114.53 3.38328 114.256 2.94969 113.914 2.57406C113.581 2.21708 113.183 1.92981 112.741 1.72853C113.361 2.07593 113.844 2.63042 114.108 3.29796C114.187 3.49414 114.56 4.26708 114.125 6.03072C113.69 7.79436 112.242 10.6978 111.552 11.9396V11.9514C111.384 12.2555 107.424 19.3277 105.526 19.3061C103.627 19.2845 99.4669 13.6483 98.4461 12.1711C97.7695 11.2 97.1586 10.2427 96.6211 9.32063C94.6144 5.88751 93.6168 2.98407 94.1388 1.91883C94.1388 1.91883 94.5718 0.773147 96.5921 0.394523L96.5786 0.382751ZM96.6056 0.382751H96.5921C96.5978 0.383968 96.6038 0.383968 96.6095 0.382751H96.6056Z" fill="white"/>
</mask>
<g mask="url(#mask1_24458_188677)">
<path d="M98.2007 -14.1112L72.6517 16.9508L103.388 42.9835L128.937 11.9215L98.2007 -14.1112Z" fill="url(#paint1_linear_24458_188677)"/>
</g>
<path d="M19.3964 32.1707L16.3844 32.1805V43.8355H19.3964V32.1707Z" fill="#034C2D"/>
<path d="M36.2719 43.6901C35.8327 43.5372 35.4542 43.244 35.1931 42.8544C34.704 42.0697 34.6615 41.1241 34.6499 39.8823V34.9386H32.792V32.1725H34.6576V29.3475H37.6658V32.1725H40.4284V34.9367H37.658V40.2236C37.6501 40.462 37.6656 40.7006 37.7044 40.9358C37.7334 41.0809 37.7605 41.1084 37.7682 41.1084C37.7958 41.136 37.8321 41.1527 37.8707 41.1555C38.0462 41.1961 38.2263 41.2126 38.4062 41.2045C38.654 41.1945 38.9007 41.167 39.1447 41.1221C39.4057 41.081 39.6184 41.0378 39.6184 41.0378L40.1713 40.9181L40.4709 43.437L40.0707 43.5822C39.3682 43.7944 38.6403 43.9079 37.9074 43.9197C37.3531 43.9395 36.7997 43.8612 36.2719 43.6882" fill="#034C2D"/>
<path d="M46.6829 43.9965C45.9208 44.0134 45.1599 43.9256 44.421 43.7356C43.7838 43.5683 43.207 43.2198 42.7584 42.7311C41.8768 41.7404 41.5984 40.2416 41.5984 38.0229C41.5984 36.3475 41.7685 35.0959 42.2132 34.1385C42.4249 33.6845 42.7335 33.284 43.1167 32.966C43.5 32.6481 43.9481 32.4207 44.4287 32.3004C45.1669 32.1067 45.9285 32.0209 46.6906 32.0453C47.9273 32.0628 49.1587 32.2141 50.3638 32.4965L50.8162 32.6044L50.4296 35.3509L49.8824 35.2273C49.8824 35.2273 49.8051 35.2136 49.6659 35.1763C49.5267 35.1391 49.3102 35.1194 49.0608 35.0841C48.435 34.9949 47.804 34.9477 47.172 34.9429C46.6343 34.9221 46.0962 34.9722 45.5713 35.092C45.4429 35.1207 45.3216 35.1757 45.2149 35.2537C45.1082 35.3316 45.0183 35.4308 44.9507 35.5451C44.8386 35.7663 44.7641 36.0051 44.7303 36.2514C44.6601 36.8371 44.6297 37.427 44.6394 38.017C44.6198 38.657 44.6606 39.2975 44.7612 39.9297C44.8579 40.379 44.9893 40.6046 45.1614 40.7596C45.3196 40.8858 45.5041 40.9736 45.7008 41.0166C46.1847 41.1163 46.6786 41.1571 47.172 41.1382C48.0055 41.125 48.8361 41.0371 49.6543 40.8753C49.7294 40.868 49.8038 40.8542 49.8766 40.8341L50.4296 40.7105L50.8162 43.3687L50.4025 43.51C50.3638 43.5237 48.9699 43.9985 46.6848 43.9985" fill="#034C2D"/>
<path d="M80.0432 34.5217C79.8499 33.6389 79.4227 32.9248 78.7112 32.5364C77.9998 32.148 77.1298 32.0381 76.0201 32.0381C75.3435 32.0381 74.6359 32.1126 74.6223 32.1126L74.4831 32.1166L73.0873 33.2191C73.0719 33.2367 73.0583 33.2367 73.0371 33.2583C72.6382 32.8148 72.145 32.4692 71.5948 32.248C71.0577 32.0762 70.4948 32.0025 69.9322 32.0302H69.8433C69.3841 32.0332 68.9253 32.0601 68.4688 32.1107L68.3643 32.1244L67.1657 33.0641C67.1174 33.0955 67.0865 33.121 67.0517 33.1386C67.039 33.1465 67.0247 33.1512 67.0098 33.1522C66.995 33.1533 66.9802 33.1508 66.9666 33.1448C66.9529 33.1388 66.9409 33.1296 66.9315 33.118C66.9221 33.1063 66.9155 33.0926 66.9125 33.0778L66.81 32.1636H64.2968V43.8284H67.3301V35.0592C67.9091 34.9573 68.4958 34.9061 69.0835 34.9062C69.4268 34.8954 69.7703 34.9151 70.1101 34.9651C70.2311 34.9958 70.3485 35.0398 70.46 35.0965C70.5804 35.2182 70.6613 35.3742 70.692 35.5438C70.7715 35.9606 70.8065 36.3848 70.7964 36.8091V43.8441H73.8046V36.0048C73.8075 35.6752 73.7745 35.3462 73.706 35.0239C74.3057 34.9501 74.9094 34.9134 75.5136 34.9141C75.856 34.9019 76.1988 34.9262 76.5363 34.9866C76.6596 35.0086 76.7784 35.051 76.8881 35.1122C77.0179 35.2221 77.1038 35.3763 77.1298 35.5458C77.2067 35.9674 77.2391 36.3962 77.2265 36.8248V43.8343H80.225V36.6287C80.2436 35.9242 80.1827 35.2199 80.0432 34.5295" fill="#034C2D"/>
<path d="M29.8731 32.597C29.0379 32.1713 27.9998 32.0379 26.6581 32.0379C25.5522 32.0379 24.5953 32.136 23.7872 32.4695C23.3725 32.6339 22.996 32.8837 22.6812 33.2031C22.3664 33.5225 22.1203 33.9046 21.9583 34.3253C21.6026 35.2631 21.4286 36.6128 21.4247 38.0155C21.4004 39.0179 21.5209 40.0186 21.7824 40.9856C22.1245 42.1882 22.8051 43.0121 23.7156 43.4476C24.6262 43.8831 25.6818 43.9871 26.8978 43.9969C28.2343 44.0004 29.5629 43.7885 30.8339 43.3691L31.236 43.224L30.8204 40.6089L30.2907 40.7109C29.1674 40.9444 28.2569 41.1406 27.0988 41.1406C26.6749 41.1499 26.2509 41.1256 25.8306 41.068C25.4745 41.0189 25.1464 40.8455 24.9027 40.5775C24.6204 40.2205 24.4773 39.5241 24.4793 38.8806V38.6275C24.4909 38.5981 24.5025 38.5706 24.5295 38.5667V38.551V38.5608C24.552 38.558 24.5747 38.558 24.5972 38.5608C24.6397 38.5804 24.6765 38.604 24.7209 38.6295L25.2816 39.1788L25.3763 39.2592L25.4923 39.2808C26.2217 39.3979 26.9599 39.4478 27.6982 39.4299C29.2254 39.4142 30.5439 39.269 31.1548 39.2455L31.6266 39.2318L31.6498 38.759C31.6923 37.9958 31.7136 37.6211 31.7136 37.2131C31.7349 36.4031 31.655 35.5936 31.4758 34.804C31.236 33.7976 30.7025 33.0149 29.8731 32.597ZM27.3386 36.6716H26.0529C25.6547 36.6716 25.0863 36.6579 24.5295 36.603C24.5508 36.2518 24.574 35.9752 24.6088 35.7516C24.6306 35.5782 24.6858 35.4109 24.7712 35.2591C24.8582 35.1179 24.9336 35.0433 25.2448 34.9531C25.741 34.8385 26.2503 34.7929 26.7586 34.8177C27.1173 34.8061 27.4763 34.8324 27.8296 34.8962C27.9663 34.922 28.0972 34.9725 28.2163 35.0453C28.3762 35.1893 28.4809 35.3859 28.5121 35.6005C28.5868 35.9387 28.6263 36.2839 28.63 36.6304C28.1834 36.6697 27.7117 36.6716 27.3347 36.6716" fill="#034C2D"/>
<path d="M61.8012 33.6721C61.6218 33.3487 61.3806 33.0648 61.0918 32.8371C60.803 32.6094 60.4724 32.4424 60.1193 32.3459C59.3885 32.1144 58.503 32.0379 57.3856 32.0379C56.5527 32.0133 55.72 32.0903 54.9052 32.2675C54.4215 32.3829 53.9692 32.6061 53.5809 32.9207C53.0261 33.3857 52.6994 34.0586 52.5234 34.8962C52.3475 35.7339 52.2914 36.7384 52.2914 38.0155C52.2694 38.9658 52.3289 39.9163 52.4693 40.8561C52.5443 41.3817 52.7147 41.8886 52.972 42.351C53.1524 42.6747 53.3943 42.9589 53.6837 43.1872C53.973 43.4155 54.3041 43.5834 54.6578 43.6811C55.3886 43.9185 56.2682 43.9891 57.3856 43.9969C58.2218 44.0156 59.0573 43.9366 59.8757 43.7615C60.3607 43.6453 60.8123 43.4156 61.1942 43.0906C61.7471 42.6335 62.0738 41.9626 62.2497 41.1288C62.4256 40.2951 62.472 39.2828 62.472 38.0076C62.4921 37.0557 62.4358 36.1037 62.3039 35.1611C62.2291 34.6349 62.0587 34.1273 61.8012 33.6642M59.3556 39.9419C59.3331 40.1968 59.2752 40.4471 59.1836 40.6855C59.1481 40.7833 59.0889 40.8705 59.0116 40.939C58.9342 41.0076 58.8411 41.0553 58.7408 41.0778C58.2974 41.1817 57.8421 41.2233 57.3875 41.2014C56.9677 41.2188 56.5473 41.1866 56.1348 41.1053C55.9902 41.0785 55.856 41.0105 55.7481 40.9091C55.6341 40.7973 55.5142 40.5717 55.4427 40.093C55.3678 39.3999 55.3368 38.7027 55.3499 38.0057C55.3392 37.3627 55.3631 36.7196 55.4214 36.0792C55.4463 35.8248 55.5041 35.5748 55.5935 35.3357C55.6316 35.2378 55.6928 35.1509 55.7717 35.0825C55.8505 35.0141 55.9446 34.9663 56.0459 34.9433C56.4881 34.8319 56.944 34.7869 57.3991 34.8099C57.8203 34.7941 58.2418 34.8263 58.6558 34.9061C58.7997 34.935 58.9333 35.0027 59.0424 35.1022C59.1565 35.216 59.2705 35.4357 59.3382 35.9164C59.4172 36.6111 59.4482 37.3105 59.431 38.0096C59.431 38.8375 59.4097 39.475 59.3633 39.9361" fill="#034C2D"/>
<path d="M114.888 34.5215C114.695 33.6387 114.252 32.9246 113.545 32.5362C112.837 32.1478 111.973 32.0379 110.85 32.0379C110.432 32.0379 109.63 32.1321 109.62 32.1321L109.479 32.1478L108.282 33.0855C108.234 33.1149 108.203 33.1424 108.17 33.164C108.157 33.1702 108.144 33.1737 108.13 33.1744C108.116 33.1751 108.102 33.1729 108.088 33.168C108.075 33.163 108.063 33.1554 108.053 33.1456C108.043 33.1358 108.035 33.1241 108.029 33.111L107.928 32.1713H105.386V43.8361H108.396V35.0787C109.039 34.9655 109.69 34.9051 110.343 34.8982C110.686 34.8878 111.03 34.9075 111.37 34.957C111.491 34.9844 111.608 35.0286 111.718 35.0885C111.847 35.2041 111.932 35.3626 111.957 35.5358C112.037 35.9524 112.07 36.3769 112.056 36.8011V43.8361H115.082V36.6285C115.095 35.9244 115.036 35.2207 114.904 34.5294" fill="#034C2D"/>
<path d="M127.273 43.2064C127.256 43.1866 127.237 43.1683 127.217 43.1514C127.202 43.1377 127.192 43.122 127.174 43.1181C123.776 40.0714 122.863 37.5251 122.863 37.5251L124.864 35.2258L126.797 32.9855L127.781 31.8653L127.051 31.881H124.232L120.381 36.2087C120.313 36.2897 120.238 36.3645 120.157 36.4323C120.076 36.4795 119.982 36.4974 119.89 36.4834V27.5867H116.87V43.8361H119.89V38.6747C119.89 38.6747 120.116 38.6531 120.195 38.7688C120.195 38.7688 121.819 42.0313 124.108 43.8145H126.854V43.8361H128C127.745 43.6242 127.495 43.4006 127.273 43.2064Z" fill="#034C2D"/>
<path d="M103.227 33.9504C103.012 33.43 102.637 32.9939 102.158 32.7066C101.307 32.1808 100.169 32.0376 98.713 32.0376C97.2111 32.0223 95.7144 32.2204 94.2665 32.6262L93.8393 32.7556L94.2801 35.4845L94.8426 35.3432C94.8426 35.3432 94.947 35.3197 95.1346 35.2706C96.2131 35.0189 97.3146 34.8821 98.4211 34.8626C99.2215 34.8626 99.7744 34.9215 100.03 35.0588C100.195 35.1235 100.333 35.2468 100.416 35.406C100.503 35.6329 100.545 35.8748 100.54 36.1181L97.1645 36.1515C96.5831 36.1449 96.0034 36.2154 95.44 36.3614C95.0921 36.4413 94.7649 36.5955 94.4802 36.8137C94.1956 37.0318 93.9599 37.309 93.789 37.6267C93.4603 38.2702 93.3579 39.0392 93.3502 40.028C93.3324 40.6434 93.4007 41.2584 93.5532 41.8544C93.6436 42.2299 93.8177 42.5793 94.062 42.8759C94.3063 43.1724 94.6144 43.4082 94.9625 43.5651C95.6701 43.8848 96.5478 43.9829 97.6884 43.9888C98.3902 43.9888 99.2505 43.8888 99.2505 43.8888L99.4187 43.8672L100.619 42.9373C100.656 42.9051 100.696 42.8756 100.737 42.849C100.75 42.8432 100.763 42.8401 100.777 42.8397C100.79 42.8394 100.804 42.8419 100.816 42.847C100.829 42.8521 100.841 42.8598 100.85 42.8696C100.86 42.8794 100.867 42.8911 100.873 42.9039L100.969 43.8279H103.558V35.8984C103.581 35.2338 103.472 34.5713 103.237 33.9504M100.54 40.8558C99.6651 41.0377 98.7763 41.1427 97.8837 41.1697C97.6019 41.1748 97.3202 41.1591 97.0408 41.1226C96.9226 41.1125 96.8063 41.0868 96.6947 41.0461C96.6103 41.0047 96.5422 40.9356 96.5014 40.85C96.4159 40.5911 96.3792 40.3183 96.3931 40.0456C96.3808 39.7492 96.4174 39.4529 96.5014 39.1687C96.5216 39.101 96.5574 39.0392 96.6058 38.9882C96.7355 38.9224 96.8768 38.8831 97.0214 38.8725C97.2612 38.8725 97.6014 38.8725 98.0151 38.8725L100.528 38.8117L100.54 40.8558Z" fill="#034C2D"/>
<path d="M89.6534 32.3687C88.9697 32.1303 88.2495 32.018 87.5268 32.0372C87.2423 32.0432 86.9587 32.0701 86.6781 32.1176C86.5911 32.1451 86.5099 32.1549 86.4499 32.1706L85.29 33.1142C85.2507 33.1406 85.2093 33.1635 85.1663 33.1828C85.0889 33.226 85.0464 33.1828 85.0406 33.1377V27.5878H82.0402V43.2075L82.3901 43.3252C83.7657 43.7682 85.2001 43.9945 86.6433 43.9962C87.513 44.0219 88.3818 43.9188 89.2222 43.6901C89.7186 43.5591 90.1778 43.312 90.5632 42.9686C90.9486 42.6253 91.2494 42.1951 91.4416 41.7127C91.8476 40.7533 91.9443 39.537 91.9443 37.9715C91.9443 36 91.7742 34.562 91.0917 33.5085C90.7391 32.9898 90.2366 32.5949 89.6534 32.3785M88.8027 39.7666C88.7741 40.0245 88.709 40.2769 88.6094 40.516C88.5682 40.6235 88.5045 40.7208 88.4227 40.801C88.341 40.8813 88.2431 40.9427 88.1358 40.9809C87.7606 41.0987 87.3681 41.1498 86.9758 41.132C86.4285 41.1293 85.8821 41.0886 85.3402 41.0103C85.2519 40.9966 85.1647 40.9763 85.0793 40.9495V35.1328C85.7244 34.9708 86.3849 34.88 87.0493 34.8621C87.398 34.8473 87.7466 34.8937 88.0797 34.9994C88.2224 35.0399 88.3515 35.1193 88.4528 35.229C88.6394 35.4817 88.7586 35.779 88.7989 36.0922C88.9418 37.3118 88.9457 38.5441 88.8105 39.7646" fill="#034C2D"/>
<path d="M5.26043 43.5824L5.28749 43.6236L5.33389 43.6433C6.10748 43.8085 6.89615 43.89 7.68668 43.8865C8.44107 43.8915 9.19352 43.8085 9.92927 43.6393L9.9834 43.6295L10.0085 43.5785C12.6086 39.5695 14.3263 35.0389 15.0447 30.2953C15.1788 29.4423 15.2653 28.5824 15.3038 27.7195L11.7291 28.2511C11.4643 30.2129 10.5093 35.8628 7.83554 40.475L7.72535 40.6712L7.61708 40.475C6.0745 37.741 4.93467 34.7926 4.23386 31.7235C3.96514 30.566 3.73121 28.977 3.62875 28.2335L0 27.7371C0.00966635 28.3884 0.262926 35.804 5.26043 43.5785" fill="#034C2D"/>
<defs>
<linearGradient id="paint0_linear_24458_188677" x1="91.8113" y1="8.79735" x2="112.118" y2="8.74496" gradientUnits="userSpaceOnUse">
<stop stop-color="#034C2D"/>
<stop offset="0.26" stop-color="#286A31"/>
<stop offset="0.84" stop-color="#87B73D"/>
<stop offset="0.91" stop-color="#92C03E"/>
<stop offset="1" stop-color="#92C03E"/>
</linearGradient>
<linearGradient id="paint1_linear_24458_188677" x1="88.2033" y1="3.38473" x2="110.776" y2="21.9511" gradientUnits="userSpaceOnUse">
<stop stop-color="#92C03E"/>
<stop offset="0.1" stop-color="#92C03E"/>
<stop offset="0.46" stop-color="#548E37"/>
<stop offset="0.82" stop-color="#1A5F30"/>
<stop offset="1" stop-color="#034C2D"/>
</linearGradient>
</defs>
</svg>
